# xmcd
#
# Track frame offsets: 
#        150
#        21632
#        38563
#        56262
#        75594
#        91045
#        110948
#        121951
#        134763
#        148395
#        172659
#        184733
#        203640
#        218660
#        236713
#        247523
#        260699
#        274663
#
# Disc length: 3988 seconds
#
# Revision: 3
# Processed by: cddbd v1.5.2PL0 Copyright (c) Steve Scherf et al.
# Submitted via: ExactAudioCopyFreeDBPlugin 1.0
#
DISCID=fc0f9212
DTITLE=Reverend Gary Davis - If I Had My Way: Early Home Recordings
DYEAR=1953
DGENRE=Blues
TTITLE0=If I Had My Way
TTITLE1=If The Lord Be For You
TTITLE2=Twelve Gates To The City
TTITLE3=You Got To Move
TTITLE4=We Are The Heavenly Father's Children
TTITLE5=A Friend Like Lonely Jesus
TTITLE6=Get Right Church
TTITLE7=Marine Band (Oh Dear What Can the Matter Be)
TTITLE8=Shine On Me
TTITLE9=There's Destruction On This Land
TTITLE10=He Stole Away
TTITLE11=The Unclouded Day
TTITLE12=Say No To The Devil
TTITLE13=I Belong To The Band
TTITLE14=Give Me A Heart To Love
TTITLE15=He Never Has Left Me Alone
TTITLE16=Got On My Traveling Shoes
TTITLE17=Civil War Parade
EXTD=YEAR: 1953
EXTT0=
EXTT1=
EXTT2=
EXTT3=
EXTT4=
EXTT5=
EXTT6=
EXTT7=
EXTT8=
EXTT9=
EXTT10=
EXTT11=
EXTT12=
EXTT13=
EXTT14=
EXTT15=
EXTT16=
EXTT17=
PLAYORDER=
